<?xml version="1.0" standalone="no"?>
<!DOCTYPE svg PUBLIC "-//W3C//DTD SVG 20010904//EN"
 "http://www.w3.org/TR/2001/REC-SVG-20010904/DTD/svg10.dtd">
<svg version="1.0" xmlns="http://www.w3.org/2000/svg"
 width="512.000000pt" height="512.000000pt" viewBox="0 0 512.000000 512.000000"
 preserveAspectRatio="xMidYMid meet">

<g transform="translate(0.000000,512.000000) scale(0.100000,-0.100000)"
fill="#000000" stroke="none">
<path d="M2145 4473 c-968 -84 -1754 -787 -1944 -1738 -78 -390 -39 -825 105
-1194 301 -767 991 -1290 1813 -1371 136 -13 747 -13 887 1 1030 100 1843 913
1943 1943 82 838 -341 1658 -1072 2077 -271 156 -561 248 -876 279 -93 9 -759
12 -856 3z m373 -163 c482 -52 901 -255 1238 -601 289 -298 467 -655 541
-1084 24 -139 24 -471 0 -610 -79 -454 -275 -829 -593 -1135 -164 -158 -301
-254 -509 -356 -612 -299 -1331 -266 -1913 89 -262 160 -501 398 -664 660
-358 575 -394 1312 -94 1922 113 230 231 390 419 571 417 401 1006 604 1575
544z m922 -97 c199 -66 400 -174 572 -305 l83 -63 -118 -3 -118 -3 -85 76
c-134 120 -280 224 -434 309 -76 43 -55 41 100 -11z m911 -635 c75 -94 149
-199 149 -213 0 -3 -65 -5 -144 -5 l-144 0 -28 48 c-30 51 -116 180 -159 236
l-27 36 135 0 136 0 82 -102z m282 -460 c32 -76 87 -223 87 -234 0 -2 -71 -4
-157 -4 l-158 0 -24 81 c-14 44 -39 116 -56 160 l-32 79 152 0 153 0 35 -82z
m136 -450 c9 -46 31 -228 31 -258 0 -6 -56 -10 -159 -10 l-160 0 -5 58 c-12
111 -28 237 -33 249 -4 10 30 13 155 13 l161 0 10 -52z m26 -490 c-8 -81 -25
-207 -32 -235 -5 -23 -7 -23 -165 -23 -125 0 -159 3 -155 13 5 12 21 138 33
250 l5 57 160 0 160 0 -6 -62z m-75 -422 c0 -11 -55 -158 -87 -233 l-35 -83
-153 0 -152 0 32 79 c17 44 42 116 56 160 l24 81 158 0 c86 0 157 -2 157 -4z
m-220 -481 c0 -14 -74 -119 -149 -213 l-82 -102 -136 0 -135 0 27 36 c43 56
129 185 159 237 l28 47 144 0 c79 0 144 -2 144 -5z m-410 -480 c0 -9 -162
-127 -243 -177 -112 -70 -281 -149 -407 -191 -165 -54 -173 -52 -57 15 145 85
263 170 377 272 l95 85 118 0 c64 1 117 -1 117 -4z"/>
<path d="M2120 4149 c-374 -43 -740 -206 -1025 -457 -382 -337 -615 -857 -615
-1372 0 -515 233 -1035 615 -1372 567 -501 1375 -608 2045 -273 562 281 941
828 1009 1457 63 574 -171 1178 -604 1560 -390 344 -920 514 -1425 457z m413
-164 c685 -90 1239 -577 1413 -1244 233 -893 -308 -1813 -1205 -2047 -954
-249 -1920 385 -2081 1366 -6 36 -13 124 -17 195 -28 607 293 1198 822 1511
321 189 700 267 1068 219z"/>
<path d="M2062 3590 c-117 -26 -226 -53 -242 -60 -17 -7 -48 -30 -70 -53 -103
-102 -85 -275 39 -362 39 -27 50 -30 124 -30 45 0 101 4 125 8 l42 9 0 -831 0
-831 -56 0 c-87 0 -133 -18 -189 -75 -71 -70 -91 -145 -63 -239 16 -55 99
-138 154 -154 29 -8 147 -12 396 -12 412 0 420 1 491 80 63 70 81 146 55 232
-6 22 -31 62 -55 88 -51 57 -108 80 -195 80 l-58 0 0 996 c0 741 -3 1007 -12
1036 -17 59 -88 133 -145 152 -68 23 -105 20 -341 -34z m313 -135 l25 -24 0
-1051 0 -1051 25 -24 c23 -24 31 -25 135 -25 104 0 112 -1 135 -25 16 -15 25
-36 25 -55 0 -19 -9 -40 -25 -55 l-24 -25 -351 0 -351 0 -24 25 c-33 32 -33
78 0 110 23 24 31 25 135 25 104 0 112 1 135 25 l25 24 0 951 0 951 -25 24
c-29 30 -37 30 -160 5 -134 -28 -168 -27 -194 6 -26 33 -27 65 -3 94 15 19 57
32 228 71 115 26 222 48 237 48 17 1 37 -9 52 -24z"/>
<path d="M1293 3305 c-32 -22 -144 -160 -195 -240 -309 -479 -310 -1092 -3
-1567 54 -82 166 -221 198 -243 32 -22 74 -18 102 10 41 40 34 75 -31 147
-224 250 -336 539 -336 868 0 329 112 618 336 868 65 72 72 107 31 147 -28 28
-70 32 -102 10z"/>
<path d="M3212 3297 c-40 -42 -30 -79 44 -163 214 -246 324 -535 324 -854 0
-319 -110 -608 -324 -854 -75 -85 -85 -125 -43 -164 45 -42 77 -31 156 54 494
529 493 1410 -2 1931 -58 61 -75 73 -102 73 -20 0 -39 -8 -53 -23z"/>
</g>
</svg>
